<svg xmlns="http://www.w3.org/2000/svg" viewBox="0 0 403.7 83.2" fill="#fff">
  <defs/>
  <path d="M117 233.6a4.5 4.5 0 01-3.6-1.4.1.1 0 01.1-.2 6.3 6.3 0 007.4-3.8.1.1 0 01.2 0 4.6 4.6 0 01-4 5.3m-6.2-3.7a6 6 0 116.5 5.4 6 6 0 01-6.5-5.4m42.1 21a31.3 31.3 0 01-30 30.2 31.9 31.9 0 01-3.7-.1.3.3 0 01-.2-.5l4.3-7.8a9.8 9.8 0 001.3-3.6l.8-6.8a3.5 3.5 0 012-3.1l2.2-.6a2.1 2.1 0 012.8 1.2l2 4a1.4 1.4 0 01-.1 1.5l-4 4.5c-.9 1-1.6 2.6 0 4s2.8 0 3.7-1c1.2-1.2 3-3.3 4-4.6a5.5 5.5 0 001.7-3.4 4.8 4.8 0 00-.2-1.8c-.4-1.3-3.7-9.2-6-15.5a37.5 37.5 0 01-2.4-16.8l1.1-10.5a.2.2 0 01.3-.1 31.4 31.4 0 0120.4 30.9m-34.6 19.9a12.6 12.6 0 001-4.2s.8-7.9.8-10.5c0-1.8-1.5-6-2.4-7.9-1.6-3.8-4.8-4.4-9.7-6.6a208 208 0 00-8.9-3.5 2.1 2.1 0 01-1.2-3 2.5 2.5 0 013.2-1.2c3.5 1.2 6.6 2.6 12.5 4.9 3.8 1.4 5.5.5 8.1-1 1.8-1 3.7-1.7 4.1-5l1.8-14a.2.2 0 00-.2-.2 31.4 31.4 0 00-13.8 61.2.4.4 0 00.5-.2zm18.6-59.3l-5.1 2.7a1 1 0 01-1.4-.5l-6-11.7a1 1 0 01.4-1.4l5.1-2.7a1 1 0 011.5.5l6 11.7a1.1 1.1 0 01-.5 1.4M445.8 228.6l-2.2 11h-10.5V271h-12v-31.4h-10.5l-2.2-11zm-229 0H253l-2.2 11h-10.5V271h-12v-31.4h-11.5zM184 249.3c0 9 6 10.1 12.6 10.1A42.3 42.3 0 00207 258l.1 11.3a42.1 42.1 0 01-13.3 2.1c-12 0-22.3-6.4-22.3-21.6 0-12.6 8.2-21.9 22.3-21.9A30.8 30.8 0 01208 231l-4 10.4a31.3 31.3 0 00-9.8-1.7c-7 0-10.3 3.3-10.3 9.6m96.4 11.2c-5.9 0-10.1-4.2-10.1-10.7s4.2-10.6 10.1-10.6 10.2 4.2 10.2 10.6-4.3 10.7-10.2 10.7m0-32.7c-12.2 0-22.1 8.7-22.1 22s9.9 22 22.1 22 22.2-8.6 22.2-22-10-22-22.2-22m36.7.8h31.7V271h-11.9v-31.4h-9.3l-1 14.4c-.8 8.8-1.1 17-13.3 17H308l1.5-10.3c6.7 0 6-1.4 7.6-32.1m64.6 31.9c-6 0-10.1-4.3-10.1-10.7s4.2-10.6 10.1-10.6 10.1 4.2 10.1 10.6-4.2 10.7-10.1 10.7m0-32.7c-12.3 0-22.1 8.7-22.1 22s9.8 22 22.1 22 22.1-8.7 22.1-22-9.8-22-22.1-22m90.9 32.7c-6 0-10.2-4.3-10.2-10.7s4.3-10.6 10.2-10.6 10.1 4.2 10.1 10.6-4.2 10.7-10.1 10.7m0-32.7c-12.3 0-22.2 8.7-22.2 22s10 22 22.2 22 22.1-8.7 22.1-22-9.9-22-22.1-22" class="cls-1" transform="translate(-91 -197.8)"/>
</svg>
